<svg width="125" height="19" viewBox="0 0 125 19" fill="none" xmlns="http://www.w3.org/2000/svg">
<path d="M7.42578 13.1953H4.80078L3.91016 18H1.94141L2.83203 13.1953H0.125V11.3438H3.18359L3.86328 7.67578H1.01562V5.8125H4.21484L5.12891 0.9375H7.08594L6.17188 5.8125H8.80859L9.72266 0.9375H11.6797L10.7656 5.8125H13.2031V7.67578H10.4141L9.73438 11.3438H12.3242V13.1953H9.38281L8.49219 18H6.53516L7.42578 13.1953ZM5.15234 11.3438H7.77734L8.45703 7.67578H5.83203L5.15234 11.3438ZM21.6523 11.4258H18.3477V18H15.3828V0.9375H21.3828C23.3516 0.9375 24.8711 1.37891 25.9414 2.26172C27.0117 3.14453 27.5469 4.42188 27.5469 6.09375C27.5469 7.23438 27.2695 8.19141 26.7148 8.96484C26.168 9.73047 25.4023 10.3203 24.418 10.7344L28.25 17.8477V18H25.0742L21.6523 11.4258ZM18.3477 9.04688H21.3945C22.3945 9.04688 23.1758 8.79688 23.7383 8.29688C24.3008 7.78906 24.582 7.09766 24.582 6.22266C24.582 5.30859 24.3203 4.60156 23.7969 4.10156C23.2812 3.60156 22.5078 3.34375 21.4766 3.32812H18.3477V9.04688ZM37.6602 18C37.5352 17.7578 37.4258 17.3633 37.332 16.8164C36.4258 17.7617 35.3164 18.2344 34.0039 18.2344C32.7305 18.2344 31.6914 17.8711 30.8867 17.1445C30.082 16.418 29.6797 15.5195 29.6797 14.4492C29.6797 13.0977 30.1797 12.0625 31.1797 11.3438C32.1875 10.6172 33.625 10.2539 35.4922 10.2539H37.2383V9.42188C37.2383 8.76562 37.0547 8.24219 36.6875 7.85156C36.3203 7.45312 35.7617 7.25391 35.0117 7.25391C34.3633 7.25391 33.832 7.41797 33.418 7.74609C33.0039 8.06641 32.7969 8.47656 32.7969 8.97656H29.9492C29.9492 8.28125 30.1797 7.63281 30.6406 7.03125C31.1016 6.42188 31.7266 5.94531 32.5156 5.60156C33.3125 5.25781 34.1992 5.08594 35.1758 5.08594C36.6602 5.08594 37.8438 5.46094 38.7266 6.21094C39.6094 6.95312 40.0625 8 40.0859 9.35156V15.0703C40.0859 16.2109 40.2461 17.1211 40.5664 17.8008V18H37.6602ZM34.5312 15.9492C35.0938 15.9492 35.6211 15.8125 36.1133 15.5391C36.6133 15.2656 36.9883 14.8984 37.2383 14.4375V12.0469H35.7031C34.6484 12.0469 33.8555 12.2305 33.3242 12.5977C32.793 12.9648 32.5273 13.4844 32.5273 14.1562C32.5273 14.7031 32.707 15.1406 33.0664 15.4688C33.4336 15.7891 33.9219 15.9492 34.5312 15.9492ZM46.0977 18H43.25V5.32031H46.0977V18ZM43.0742 2.02734C43.0742 1.58984 43.2109 1.22656 43.4844 0.9375C43.7656 0.648437 44.1641 0.503906 44.6797 0.503906C45.1953 0.503906 45.5938 0.648437 45.875 0.9375C46.1562 1.22656 46.2969 1.58984 46.2969 2.02734C46.2969 2.45703 46.1562 2.81641 45.875 3.10547C45.5938 3.38672 45.1953 3.52734 44.6797 3.52734C44.1641 3.52734 43.7656 3.38672 43.4844 3.10547C43.2109 2.81641 43.0742 2.45703 43.0742 2.02734ZM52.0156 6.70312C52.9453 5.625 54.1211 5.08594 55.543 5.08594C58.2461 5.08594 59.6172 6.62891 59.6562 9.71484V18H56.8086V9.82031C56.8086 8.94531 56.6172 8.32812 56.2344 7.96875C55.8594 7.60156 55.3047 7.41797 54.5703 7.41797C53.4297 7.41797 52.5781 7.92578 52.0156 8.94141V18H49.168V0H52.0156V6.70312ZM65.9492 18H62.9961V0.9375H65.9492V18ZM72.125 6.70312C73.0547 5.625 74.2305 5.08594 75.6523 5.08594C78.3555 5.08594 79.7266 6.62891 79.7656 9.71484V18H76.918V9.82031C76.918 8.94531 76.7266 8.32812 76.3438 7.96875C75.9688 7.60156 75.4141 7.41797 74.6797 7.41797C73.5391 7.41797 72.6875 7.92578 72.125 8.94141V18H69.2773V0H72.125V6.70312ZM86.7734 12.5625L85.5078 13.8633V18H82.6602V0H85.5078V10.3828L86.3984 9.26953L89.9023 5.32031H93.3242L88.6133 10.6055L93.8281 18H90.5352L86.7734 12.5625ZM98.2227 18H95.375V0H98.2227V18ZM108.91 18C108.785 17.7578 108.676 17.3633 108.582 16.8164C107.676 17.7617 106.566 18.2344 105.254 18.2344C103.98 18.2344 102.941 17.8711 102.137 17.1445C101.332 16.418 100.93 15.5195 100.93 14.4492C100.93 13.0977 101.43 12.0625 102.43 11.3438C103.438 10.6172 104.875 10.2539 106.742 10.2539H108.488V9.42188C108.488 8.76562 108.305 8.24219 107.938 7.85156C107.57 7.45312 107.012 7.25391 106.262 7.25391C105.613 7.25391 105.082 7.41797 104.668 7.74609C104.254 8.06641 104.047 8.47656 104.047 8.97656H101.199C101.199 8.28125 101.43 7.63281 101.891 7.03125C102.352 6.42188 102.977 5.94531 103.766 5.60156C104.562 5.25781 105.449 5.08594 106.426 5.08594C107.91 5.08594 109.094 5.46094 109.977 6.21094C110.859 6.95312 111.312 8 111.336 9.35156V15.0703C111.336 16.2109 111.496 17.1211 111.816 17.8008V18H108.91ZM105.781 15.9492C106.344 15.9492 106.871 15.8125 107.363 15.5391C107.863 15.2656 108.238 14.8984 108.488 14.4375V12.0469H106.953C105.898 12.0469 105.105 12.2305 104.574 12.5977C104.043 12.9648 103.777 13.4844 103.777 14.1562C103.777 14.7031 103.957 15.1406 104.316 15.4688C104.684 15.7891 105.172 15.9492 105.781 15.9492ZM121.426 14.5547C121.426 14.0469 121.215 13.6602 120.793 13.3945C120.379 13.1289 119.688 12.8945 118.719 12.6914C117.75 12.4883 116.941 12.2305 116.293 11.918C114.871 11.2305 114.16 10.2344 114.16 8.92969C114.16 7.83594 114.621 6.92188 115.543 6.1875C116.465 5.45312 117.637 5.08594 119.059 5.08594C120.574 5.08594 121.797 5.46094 122.727 6.21094C123.664 6.96094 124.133 7.93359 124.133 9.12891H121.285C121.285 8.58203 121.082 8.12891 120.676 7.76953C120.27 7.40234 119.73 7.21875 119.059 7.21875C118.434 7.21875 117.922 7.36328 117.523 7.65234C117.133 7.94141 116.938 8.32812 116.938 8.8125C116.938 9.25 117.121 9.58984 117.488 9.83203C117.855 10.0742 118.598 10.3203 119.715 10.5703C120.832 10.8125 121.707 11.1055 122.34 11.4492C122.98 11.7852 123.453 12.1914 123.758 12.668C124.07 13.1445 124.227 13.7227 124.227 14.4023C124.227 15.543 123.754 16.4688 122.809 17.1797C121.863 17.8828 120.625 18.2344 119.094 18.2344C118.055 18.2344 117.129 18.0469 116.316 17.6719C115.504 17.2969 114.871 16.7812 114.418 16.125C113.965 15.4688 113.738 14.7617 113.738 14.0039H116.504C116.543 14.6758 116.797 15.1953 117.266 15.5625C117.734 15.9219 118.355 16.1016 119.129 16.1016C119.879 16.1016 120.449 15.9609 120.84 15.6797C121.23 15.3906 121.426 15.0156 121.426 14.5547Z" fill="#FA73DC"/>
</svg>
