<svg width="85" height="29" viewBox="0 0 85 29" fill="none" xmlns="http://www.w3.org/2000/svg">
<path d="M4.4668 24.8711C3.35352 23.7578 2.48047 22.416 1.84766 20.8457C1.22656 19.2637 0.916016 17.5938 0.916016 15.8359C0.916016 14.0664 1.0918 12.5078 1.44336 11.1602C1.79492 9.8125 2.28125 8.59375 2.90234 7.50391C3.52344 6.40234 4.26172 5.42969 5.11719 4.58594C5.97266 3.74219 6.9043 3.0332 7.91211 2.45898C9.95117 1.29883 12.1602 0.71875 14.5391 0.71875C18.1484 0.71875 21.0898 1.86719 23.3633 4.16406C25.7422 6.55469 26.9316 9.70117 26.9316 13.6035C26.9316 16.5449 26.2695 19.1875 24.9453 21.5312C23.7383 23.6641 22.0742 25.3398 19.9531 26.5586C17.9141 27.7422 15.8574 28.334 13.7832 28.334C11.7207 28.334 9.92773 28.0352 8.4043 27.4375C6.89258 26.8281 5.58008 25.9727 4.4668 24.8711ZM7.41992 6.48438C6.72852 7.45703 6.21875 8.63477 5.89062 10.0176C5.5625 11.4004 5.39844 12.8887 5.39844 14.4824C5.39844 16.0645 5.55078 17.5176 5.85547 18.8418C6.16016 20.1543 6.64648 21.3086 7.31445 22.3047C8.76758 24.4727 10.9238 25.5566 13.7832 25.5566C16.666 25.5566 18.8516 24.6133 20.3398 22.7266C21.7695 20.8867 22.4844 18.2676 22.4844 14.8691C22.4844 9.6543 20.9375 6.15625 17.8438 4.375C16.7422 3.75391 15.4355 3.44336 13.9238 3.44336C12.4121 3.44336 11.123 3.70703 10.0566 4.23438C8.99023 4.76172 8.11133 5.51172 7.41992 6.48438ZM56.0059 3.30273C55.7598 3.18555 55.4199 3.12695 54.9863 3.12695C54.5527 3.12695 54.2246 3.2207 54.002 3.4082C53.791 3.58398 53.5918 3.83594 53.4043 4.16406C53.2168 4.49219 53.0352 4.88477 52.8594 5.3418L45.5996 25.0469C44.8145 27.2383 43.5078 28.334 41.6797 28.334C41.1055 28.334 40.7539 28.1699 40.625 27.8418L31.959 5.78125C31.8652 5.54688 31.7773 5.29492 31.6953 5.02539C31.6133 4.74414 31.5195 4.47461 31.4141 4.2168C31.1562 3.61914 30.7988 3.25 30.3418 3.10938C30.0723 3.01563 29.832 2.93945 29.6211 2.88086C29.4219 2.81055 29.2578 2.73438 29.1289 2.65234C28.8594 2.47656 28.7246 2.25391 28.7246 1.98438C28.7246 1.5625 28.8184 1.20508 29.0059 0.912109C29.2754 1.00586 29.7383 1.05273 30.3945 1.05273H37.6719C38.457 1.05273 38.9902 1.10547 39.2715 1.21094C39.8105 1.42188 40.0801 1.82031 40.0801 2.40625C40.0801 2.80469 39.9922 3.10352 39.8164 3.30273C39.5586 3.18555 39.0488 3.12695 38.2871 3.12695C36.9043 3.12695 36.2129 3.70117 36.2129 4.84961C36.2129 4.99023 36.2539 5.19531 36.3359 5.46484L36.5469 6.08008C36.6055 6.23242 36.6582 6.36719 36.7051 6.48438L43.0156 23.8516L49.5371 5.20117C49.6074 4.94336 49.6426 4.71484 49.6426 4.51562C49.6426 4.30469 49.5957 4.12891 49.502 3.98828C49.4082 3.83594 49.2852 3.70703 49.1328 3.60156C48.9688 3.48437 48.6758 3.38477 48.2539 3.30273C47.832 3.20898 47.4805 3.12695 47.1992 3.05664C46.9297 2.98633 46.7012 2.89844 46.5137 2.79297C46.1387 2.58203 45.9395 2.23047 45.916 1.73828C45.916 1.41016 45.9746 1.13477 46.0918 0.912109C46.3613 1.00586 46.9414 1.05273 47.832 1.05273H53.9316C55.502 1.05273 56.2871 1.50391 56.2871 2.40625C56.2871 2.79297 56.1934 3.0918 56.0059 3.30273ZM61.6309 24.8711C60.5176 23.7578 59.6445 22.416 59.0117 20.8457C58.3906 19.2637 58.0801 17.5938 58.0801 15.8359C58.0801 14.0664 58.2559 12.5078 58.6074 11.1602C58.959 9.8125 59.4453 8.59375 60.0664 7.50391C60.6875 6.40234 61.4258 5.42969 62.2812 4.58594C63.1367 3.74219 64.0684 3.0332 65.0762 2.45898C67.1152 1.29883 69.3242 0.71875 71.7031 0.71875C75.3125 0.71875 78.2539 1.86719 80.5273 4.16406C82.9062 6.55469 84.0957 9.70117 84.0957 13.6035C84.0957 16.5449 83.4336 19.1875 82.1094 21.5312C80.9023 23.6641 79.2383 25.3398 77.1172 26.5586C75.0781 27.7422 73.0215 28.334 70.9473 28.334C68.8848 28.334 67.0918 28.0352 65.5684 27.4375C64.0566 26.8281 62.7441 25.9727 61.6309 24.8711ZM64.584 6.48438C63.8926 7.45703 63.3828 8.63477 63.0547 10.0176C62.7266 11.4004 62.5625 12.8887 62.5625 14.4824C62.5625 16.0645 62.7148 17.5176 63.0195 18.8418C63.3242 20.1543 63.8105 21.3086 64.4785 22.3047C65.9316 24.4727 68.0879 25.5566 70.9473 25.5566C73.8301 25.5566 76.0156 24.6133 77.5039 22.7266C78.9336 20.8867 79.6484 18.2676 79.6484 14.8691C79.6484 9.6543 78.1016 6.15625 75.0078 4.375C73.9062 3.75391 72.5996 3.44336 71.0879 3.44336C69.5762 3.44336 68.2871 3.70703 67.2207 4.23438C66.1543 4.76172 65.2754 5.51172 64.584 6.48438Z" fill="#FA73DC"/>
</svg>
